<svg width="118" height="60" viewBox="0 0 118 60" xmlns="http://www.w3.org/2000/svg"><title>Bosch - Gray</title><path d="M-.423 29.828c0 3.517 1.37 6.8 3.859 9.245 2.475 2.433 5.78 3.773 9.304 3.773 7.138 0 12.944-5.84 12.944-13.018 0-3.544-1.332-6.869-3.751-9.356a12.704 12.704 0 0 0-9.193-3.881c-7.258 0-13.163 5.938-13.163 13.237zm5.016 8.087c-2.223-2.176-3.447-5.048-3.447-8.087 0-6.43 5.201-11.658 11.594-11.658 3.021 0 5.877 1.23 8.04 3.464a11.732 11.732 0 0 1 3.335 8.194c0 6.308-5.103 11.44-11.375 11.44-3.046 0-5.94-1.191-8.147-3.353zM16.647 21.76v4.058H8.614V21.76c0-.51-.17-.552-.33-.552-.1 0-.198.028-.284.082-2.994 1.826-4.782 5.019-4.782 8.537 0 3.428 1.743 6.459 4.782 8.314.086.053.185.08.285.08.304 0 .329-.323.329-.327v-4.278h8.033v4.278c0 .16.042.332.55.332a.314.314 0 0 0 .17-.049c2.884-1.732 4.676-4.932 4.676-8.35 0-3.495-1.791-6.846-4.562-8.537a.54.54 0 0 0-.285-.082.551.551 0 0 0-.549.552zM6.48 34.264c-.972-1.49-1.424-2.9-1.424-4.436 0-2.019.774-3.639 1.424-4.642l.324-.501-.026.875v8.334l.008.274.018.594-.324-.498zm2.135-2.662v-3.936h8.033v4.104H8.614v-.168zm9.855-6.321l-.024-.797.328.536c.924 1.514 1.433 3.221 1.433 4.808 0 2.03-.766 3.537-1.433 4.623l-.328.532.027-.898v-8.703l.005.04-.008-.141zm30.236 7.805c0-1.003-.736-1.697-2.281-1.697H43.33v3.42h3.17c1.293 0 2.206-.463 2.206-1.723zm-.557-6.788c0-.977-.66-1.646-1.649-1.646h-3.17v3.24h3.095c1.114 0 1.724-.822 1.724-1.594zm5.171 7.276c0 2.932-2.686 4.86-5.4 4.86h-8.85V21.027h8.113c3.12 0 5.376 1.568 5.376 4.783 0 2.752-2.382 3.575-2.382 3.575 0 .025 3.143.746 3.143 4.19zm13.245-3.856c0-2.726-1.243-4.937-3.7-4.937-2.46 0-3.677 2.211-3.677 4.937 0 2.751 1.217 4.962 3.677 4.962 2.457 0 3.7-2.21 3.7-4.962zm4.259 0c0 5.117-2.916 9.128-7.959 9.128-5.02 0-7.961-4.011-7.961-9.128 0-5.091 2.94-9.128 7.958-9.128 5.046 0 7.962 4.037 7.962 9.128zm14.867 3.445c0 3.832-3.447 5.683-6.69 5.683-3.753 0-5.681-1.44-7.2-3.265l2.761-2.726c1.167 1.491 2.69 2.237 4.388 2.237 1.394 0 2.331-.694 2.331-1.723 0-1.105-.828-1.45-3.095-1.929l-.607-.128c-2.729-.576-4.97-2.134-4.97-5.245 0-3.42 2.765-5.477 6.417-5.477 3.092 0 5.095 1.337 6.313 2.724l-2.69 2.676c-.836-.9-2.104-1.62-3.548-1.62-.988 0-2.104.462-2.104 1.62 0 1.054 1.161 1.436 2.636 1.748l.61.129c2.468.52 5.448 1.285 5.448 5.296zm16.466 1.903c-1.775 2.572-3.423 3.78-6.845 3.78-4.866 0-8.012-4.063-8.012-9.23 0-4.912 2.84-9 8.062-9 2.866 0 4.92 1.13 6.669 3.78l-3.498 2.34c-.711-1.235-1.623-1.955-3.146-1.955-1.925 0-3.777 1.732-3.777 4.834 0 3.476 2.003 5.065 3.906 5.065 1.646 0 2.407-.822 3.118-2.005l3.523 2.391zm16.238 3.369h-4.564v-6.866h-5.25v6.866h-4.536V21.026h4.537v6.403h5.25v-6.403h4.563v17.409z" fill="#7D97AD"/></svg>