<svg width="71" height="70" viewBox="0 0 71 70" xmlns="http://www.w3.org/2000/svg"><title>Slice</title><g fill="none"><path fill="#7D97AD" d="M0 17v35.038h35.793l35.034-35.034H0zm45.336 31.457v2.613h.395v-1.134h.444l.715 1.134h.443l-.764-1.134c.382-.047.69-.27.69-.74 0-.515-.315-.74-.936-.74h-.987zm.395.345h.542c.267 0 .567.043.567.37 0 .408-.304.444-.64.444h-.47v-.814zm.493-1.307c-1.251 0-2.317.965-2.317 2.269 0 1.313 1.066 2.292 2.317 2.292a2.262 2.262 0 0 0 2.268-2.292 2.247 2.247 0 0 0-2.268-2.269zm0 .37c1.02 0 1.824.825 1.824 1.899 0 1.091-.803 1.898-1.824 1.898-1.038 0-1.874-.807-1.874-1.898 0-1.074.836-1.899 1.874-1.899z"/><path d="M42.44 33.765h-1.535v-5.614h1.535c2.05 0 3.68.675 3.68 2.771 0 2.165-1.63 2.843-3.68 2.843M25.917 37.78a6.376 6.376 0 0 1-2.234-.396l2.211-6.973h.048l2.165 6.992a6.51 6.51 0 0 1-2.188.377m16.114-14.19H35.06v16.578l-6.09-16.577h-6.036L17.73 37.449c-.55-3.493-4.168-4.703-7.013-5.604-1.875-.604-3.871-1.49-3.853-2.473.016-.803 1.072-1.548 3.155-1.436 1.405.07 2.643.184 5.102 1.373l2.422-4.219c-2.244-1.146-5.353-1.866-7.896-1.871h-.016c-2.967 0-5.44.967-6.973 2.55-1.065 1.108-1.642 2.509-1.668 4.069-.04 2.136.747 3.652 2.393 4.865 1.394 1.02 3.17 1.678 4.74 2.17 1.937.597 3.518 1.119 3.5 2.23a1.616 1.616 0 0 1-.459 1.084c-.482.501-1.223.686-2.247.71-1.976.039-3.44-.269-5.774-1.648L.99 43.527a16.086 16.086 0 0 0 7.891 2.1h.364c2.445-.048 4.42-.746 6-2.015l.255-.223-.697 1.875h6.33l1.064-3.234c1.112.376 2.379.588 3.72.588 1.309 0 2.544-.198 3.636-.557l1.023 3.203h10.33v-6.698h2.253c5.443 0 8.667-2.77 8.667-7.42 0-5.176-3.13-7.55-9.795-7.55" fill="#FFF"/></g></svg>